<svg width="484" height="89" viewBox="0 0 484 89" fill="none" xmlns="http://www.w3.org/2000/svg">
<path d="M135.5 80.5V71.5H138.5L140 72.5L140.5 73.5V74.5V75.5L139.5 76.5L138.5 77H137.5L140 80.5" stroke="black" stroke-width="1.2" stroke-linejoin="round"/>
<path d="M246 80.5V71.5H249L250.5 72L251 73V74V75L250 76L249 76.5H248L251 80.5" stroke="black" stroke-width="1.2" stroke-linejoin="round"/>
<path d="M196 80.5V71.5H197L201 80H201.5V71" stroke="black" stroke-width="1.2" stroke-linejoin="round"/>
<path d="M222 71V80H226.5" stroke="black" stroke-width="1.2" stroke-linejoin="round"/>
<path d="M144 80.5V80M148 71.5H144V76M144 76H148M144 76V80M144 80H148" stroke="black" stroke-width="1.2" stroke-linejoin="round"/>
<path d="M259 71.5H255V76M255 76V80H259M255 76H257H259" stroke="black" stroke-width="1.2" stroke-linejoin="round"/>
<path d="M163 77H166" stroke="black" stroke-width="1.2" stroke-linejoin="round"/>
<path d="M155 73.5V73L154 71.5H152.5L151.5 72.5L151 74L151.5 75L152.5 75.5L154 76L155 77.5V78.5L154.5 79.5L153.5 80H152.5L151.5 79.5L151 78.5V77" stroke="black" stroke-width="1.2" stroke-linejoin="round"/>
<path d="M155 73.5V73L154 71.5H152.5L151.5 72.5L151 74L151.5 75L152.5 75.5L154 76L155 77.5V78.5L154.5 79.5L153.5 80H152.5L151.5 79.5L151 78.5V77" stroke="black" stroke-width="1.2" stroke-linejoin="round"/>
<path d="M209 73.5V72.5882L208 71.5H206.5L205.5 72.5L205 73.6471L205.5 74.7059L206.5 75.2353L208 75.7647L209 77.3529V78.4118L208.5 79.4706L207.5 80H206.5L205.5 79.4706L205 78.4118V76.8235" stroke="black" stroke-width="1.2" stroke-linejoin="round"/>
<path d="M266 74V73L265 71.5H263.5L262.5 72.5L262 74.0208L262.5 75.0173L263.5 75.5156L265 76.0138L266 77.5087V78.5052L265.5 79.5017L264.5 80H263.5L262.5 79.5017L262 78.5052V77.0104" stroke="black" stroke-width="1.2" stroke-linejoin="round"/>
<path d="M113 71V80.5M103 80V71.5H105.5L107 72L108 72.5L109 74V76V78L107.5 79.5L106 80H103Z" stroke="black" stroke-width="1.2" stroke-linejoin="round"/>
<path d="M118 80.5V71.5H116H120.5" stroke="black" stroke-width="1.2" stroke-linejoin="round"/>
<path d="M229.5 80.5V71.5M229.5 71.5H227.5M229.5 71.5H231.5" stroke="black" stroke-width="1.2" stroke-linejoin="round"/>
<path d="M83.5 80.5L84.8285 77.3442M90.5 80.5L89.1726 77.3442M89.1726 77.3442L87 72L84.8285 77.3442M89.1726 77.3442H84.8285M94.5 71V78L95 79L96 80H97.5L98.5 79L99 78V71" stroke="black" stroke-width="1.2" stroke-linejoin="round"/>
<path d="M131.4 75.5C131.4 76.5866 130.956 77.6995 130.229 78.539C129.502 79.377 128.532 79.9 127.5 79.9C126.468 79.9 125.498 79.377 124.771 78.539C124.044 77.6995 123.6 76.5866 123.6 75.5C123.6 74.4134 124.044 73.3005 124.771 72.461C125.498 71.623 126.468 71.1 127.5 71.1C128.532 71.1 129.502 71.623 130.229 72.461C130.956 73.3005 131.4 74.4134 131.4 75.5Z" stroke="black" stroke-width="1.2" stroke-linejoin="round"/>
<path d="M181.4 76C181.4 77.0866 180.956 78.1995 180.229 79.039C179.502 79.877 178.532 80.4 177.5 80.4C176.468 80.4 175.498 79.877 174.771 79.039C174.044 78.1995 173.6 77.0866 173.6 76C173.6 74.9134 174.044 73.8005 174.771 72.961C175.498 72.123 176.468 71.6 177.5 71.6C178.532 71.6 179.502 72.123 180.229 72.961C180.956 73.8005 181.4 74.9134 181.4 76Z" stroke="black" stroke-width="1.2" stroke-linejoin="round"/>
<rect x="180" y="74" width="2" height="4" fill="#EEEDDF"/>
<path d="M192.4 76C192.4 77.0866 191.956 78.1995 191.229 79.039C190.502 79.877 189.532 80.4 188.5 80.4C187.468 80.4 186.498 79.877 185.771 79.039C185.044 78.1995 184.6 77.0866 184.6 76C184.6 74.9134 185.044 73.8005 185.771 72.961C186.498 72.123 187.468 71.6 188.5 71.6C189.532 71.6 190.502 72.123 191.229 72.961C191.956 73.8005 192.4 74.9134 192.4 76Z" stroke="black" stroke-width="1.2" stroke-linejoin="round"/>
<path d="M213 71V78L213.5 79L214.5 80H216L217 79L217.5 78V71" stroke="black" stroke-width="1.2" stroke-linejoin="round"/>
<path d="M242.4 76C242.4 77.0866 241.956 78.1995 241.229 79.039C240.502 79.877 239.532 80.4 238.5 80.4C237.468 80.4 236.498 79.877 235.771 79.039C235.044 78.1995 234.6 77.0866 234.6 76C234.6 74.9134 235.044 73.8005 235.771 72.961C236.498 72.123 237.468 71.6 238.5 71.6C239.532 71.6 240.502 72.123 241.229 72.961C241.956 73.8005 242.4 74.9134 242.4 76Z" stroke="black" stroke-width="1.2" stroke-linejoin="round"/>
<path d="M357 37.5V35L356.5 34L355.5 33L354 32.5H351L349.5 34L348.5 36.5V38.5L350.5 40.5L352.5 41.5L354.5 42L356.5 43.5L357 44.5L357.5 46.5L357 48.5L356 50L354.5 51H351L349.5 50L348 48V46" stroke="#262D46" stroke-width="2.5" stroke-linejoin="round"/>
<path d="M472.5 37.5V35L472.026 33.8919L471 33L469.5 32.5H467.5L466 33.5L465 34.5L464.5 35.5L464.474 36.8919V38.8378L466.368 40.7838L468.263 41.7568L470.158 42.2432L472.053 43.7027L472.526 44.6757L473 46.6216L472.526 48.5676L471.579 50.027L470.158 51H466.842L465.421 50.027L464 48.0811V46.1351" stroke="#262D46" stroke-width="2.5" stroke-linejoin="round"/>
<path d="M269.5 52L271.079 48M286 52L284.081 48M284.081 48L278 32.5H277L271.079 48M284.081 48H271.079" stroke="#262D46" stroke-width="2.5" stroke-linejoin="round"/>
<path d="M314.5 52L307 44.3077L304 41.1923L302 39.4615L301 38.0769V35.7692L301.5 34.3846L302.5 33L303.5 32.5H305L306 33L307 34.3846L307.5 35.7692V38.0769L307 39L306 39.9231L304.5 41.3077H302L300 43.1538L299 45V46.3846V47.7692L299.5 49.1538L301 50.5385L303.5 51L305.5 50.5385L312.5 39" stroke="#262D46" stroke-width="2.5" stroke-linejoin="round"/>
<path d="M169.5 52V27.5H170.5L179.5 51H180.5L189.5 27.5H190.5V52" stroke="#262D46" stroke-width="2.5" stroke-linejoin="round"/>
<path d="M198 51.6958V32.5V52" stroke="#262D46" stroke-width="2.5" stroke-linejoin="round"/>
<path d="M402 51.6881V32.2656V52" stroke="#262D46" stroke-width="2.5" stroke-linejoin="round"/>
<path d="M118.5 52V32.5H120L131 51H132V31.5" stroke="#262D46" stroke-width="2.5" stroke-linejoin="round"/>
<path d="M236 52V32.5H237L247.5 51H248V31.5" stroke="#262D46" stroke-width="2.5" stroke-linejoin="round"/>
<path d="M255.5 51H253.5M253.5 51V32.5H260L262.5 33.5L264 35L265.5 36.5L266.5 38.5V44.5L265.5 47L264 49L262 50.5L260 51H253.5Z" stroke="#262D46" stroke-width="2.5" stroke-linejoin="round"/>
<path d="M426 52V51.0355M426 51.0355V32.5H432L435 34.1565L436.5 35.6033L438 37.0501L439 38.9791V44.7662L438 47.1774L436.5 49.1065L434.5 50.5532L432 51L426 51.0355Z" stroke="#262D46" stroke-width="2.5" stroke-linejoin="round"/>
<path d="M146.5 51H137.5H137V41.75M146.5 32.5H137V41.75M137 41.75H146.5" stroke="#262D46" stroke-width="2.5" stroke-linejoin="round"/>
<path d="M148.5 32.5H158.5V33.5L149.5 50V51H159.5" stroke="#262D46" stroke-width="2.5" stroke-linejoin="round"/>
<path d="M104 52V32.5H110.19L112.5 33.5L113.524 35.5676L114 37.6216V39.6757V41.7297L113.048 43.7838L111 45L108.762 46.3514L114 52" stroke="#262D46" stroke-width="2.5" stroke-linejoin="round"/>
<path d="M203 52V32.5263H209.386L211.351 33.5789L212.825 35.1579L213.316 37.2632V39.3684L212.825 41.4737L212.333 42.5263L211 43L209.5 43.5L208 44L213.316 52M216.5 52L218 48M232 52L230.5 48M230.5 48L225 32.5H223.5L218 48M230.5 48H218" stroke="#262D46" stroke-width="2.5" stroke-linejoin="round"/>
<path d="M406 52L407.5 48.5M422 52L420.5 48.5M420.5 48.5L414.5 32.5H413.5L407.5 48.5M420.5 48.5H407.5" stroke="#262D46" stroke-width="2.5" stroke-linejoin="round"/>
<path d="M99 52L97 47M80 52L82 47M82 47L89 27.5H90.5L97 47M82 47H97" stroke="#262D46" stroke-width="2.5" stroke-linejoin="round"/>
<path d="M344 52L342.638 47.5M326 52L327.594 47.5M327.594 47.5L334.5 27.5H336L342.638 47.5M327.594 47.5H342.638" stroke="#262D46" stroke-width="2.5" stroke-linejoin="round"/>
<path d="M377.75 41.5C377.75 46.7293 373.942 50.75 369.5 50.75C365.058 50.75 361.25 46.7293 361.25 41.5C361.25 36.2707 365.058 32.25 369.5 32.25C373.942 32.25 377.75 36.2707 377.75 41.5Z" stroke="#262D46" stroke-width="2.5" stroke-linejoin="round"/>
<path d="M398.75 42C398.75 47.1467 395.019 50.75 390.5 50.75C386.058 50.75 382.25 46.7293 382.25 41.5C382.25 36.2707 386.058 32.25 390.5 32.25C394.872 32.25 398.75 36.6916 398.75 42Z" stroke="#262D46" stroke-width="2.5" stroke-linejoin="round"/>
<rect x="396" y="37" width="4" height="10" fill="#EEEDDF"/>
<path d="M459.75 41.5C459.75 46.7293 455.942 50.75 451.5 50.75C447.058 50.75 443.25 46.7293 443.25 41.5C443.25 36.2707 447.058 32.25 451.5 32.25C455.942 32.25 459.75 36.2707 459.75 41.5Z" stroke="#262D46" stroke-width="2.5" stroke-linejoin="round"/>
<rect x="6" y="4" width="59" height="59.9003" fill="#B3C394"/>
<rect x="6" y="4" width="59" height="59.9003" fill="#B3C394"/>
<rect x="6" y="66.2679" width="59" height="13.7321" fill="#B3C394"/>
<path d="M14.3359 77.5646C13.7199 77.5646 13.1639 77.4446 12.6679 77.2046C12.1719 76.9566 11.7439 76.6286 11.3839 76.2206C11.0239 75.8126 10.7439 75.3526 10.5439 74.8406C10.3519 74.3206 10.2559 73.7886 10.2559 73.2446C10.2559 72.6766 10.3599 72.1366 10.5679 71.6246C10.7759 71.1046 11.0639 70.6446 11.4319 70.2446C11.7999 69.8366 12.2319 69.5166 12.7279 69.2846C13.2319 69.0446 13.7759 68.9246 14.3599 68.9246C14.9679 68.9246 15.5199 69.0486 16.0159 69.2966C16.5199 69.5446 16.9479 69.8766 17.2999 70.2926C17.6599 70.7086 17.9359 71.1726 18.1279 71.6846C18.3279 72.1966 18.4279 72.7206 18.4279 73.2566C18.4279 73.8246 18.3239 74.3686 18.1159 74.8886C17.9159 75.4006 17.6319 75.8606 17.2639 76.2686C16.8959 76.6686 16.4599 76.9846 15.9559 77.2166C15.4599 77.4486 14.9199 77.5646 14.3359 77.5646ZM14.3479 76.3526C14.7799 76.3526 15.1639 76.2646 15.4999 76.0886C15.8359 75.9126 16.1159 75.6766 16.3399 75.3806C16.5719 75.0766 16.7479 74.7406 16.8679 74.3726C16.9879 73.9966 17.0479 73.6206 17.0479 73.2446C17.0479 72.8446 16.9839 72.4566 16.8559 72.0806C16.7359 71.7046 16.5559 71.3726 16.3159 71.0846C16.0759 70.7966 15.7879 70.5686 15.4519 70.4006C15.1239 70.2246 14.7559 70.1366 14.3479 70.1366C13.9159 70.1366 13.5319 70.2246 13.1959 70.4006C12.8599 70.5766 12.5759 70.8166 12.3439 71.1206C12.1119 71.4166 11.9319 71.7486 11.8039 72.1166C11.6839 72.4846 11.6239 72.8606 11.6239 73.2446C11.6239 73.6446 11.6879 74.0326 11.8159 74.4086C11.9439 74.7846 12.1239 75.1166 12.3559 75.4046C12.5959 75.6926 12.8839 75.9246 13.2199 76.1006C13.5559 76.2686 13.9319 76.3526 14.3479 76.3526ZM14.5159 74.5406H15.8119L18.4039 77.5046H17.1079L14.5159 74.5406ZM23.3479 77.5646C22.6679 77.5646 22.0919 77.4486 21.6199 77.2166C21.1559 76.9846 20.7799 76.6686 20.4919 76.2686C20.2119 75.8686 20.0039 75.4126 19.8679 74.9006C19.7399 74.3886 19.6759 73.8566 19.6759 73.3046V68.9846H21.0199V73.3046C21.0199 73.6966 21.0599 74.0766 21.1399 74.4446C21.2199 74.8046 21.3479 75.1286 21.5239 75.4166C21.6999 75.7046 21.9359 75.9326 22.2319 76.1006C22.5359 76.2686 22.9079 76.3526 23.3479 76.3526C23.7959 76.3526 24.1679 76.2686 24.4639 76.1006C24.7679 75.9246 25.0039 75.6926 25.1719 75.4046C25.3479 75.1086 25.4759 74.7806 25.5559 74.4206C25.6359 74.0606 25.6759 73.6886 25.6759 73.3046V68.9846H27.0319V73.3046C27.0319 73.8886 26.9599 74.4406 26.8159 74.9606C26.6799 75.4726 26.4639 75.9246 26.1679 76.3166C25.8799 76.7006 25.5039 77.0046 25.0399 77.2286C24.5759 77.4526 24.0119 77.5646 23.3479 77.5646ZM30.9278 68.9846H32.1998L35.5118 77.5046H34.0958L33.1958 75.1886H29.9078L29.0198 77.5046H27.5918L30.9278 68.9846ZM32.9318 74.1926L31.5638 70.4606L30.1478 74.1926H32.9318ZM36.5655 77.5046V68.9846H37.9095V76.3166H42.4815V77.5046H36.5655ZM43.5733 77.5046V68.9846H44.9173V77.5046H43.5733ZM53.0948 70.1726H50.2628V77.5046H48.9068V70.1726H46.0628V68.9846H53.0948V70.1726ZM54.8613 68.9846L57.2133 73.2206L59.5893 68.9846H61.0653L57.8853 74.4566V77.5046H56.5413V74.4326L53.3853 68.9846H54.8613Z" fill="white"/>
<path d="M13.47 74.1994C14.2297 74.1994 14.6095 74.7913 14.6095 74.7913L15.6224 74.4361C15.6224 74.4361 14.7361 73.3707 13.47 73.3707C12.2039 73.3707 11.0645 74.1994 11.0645 74.1994L11.6975 74.9097C11.6975 74.9097 12.7104 74.1994 13.47 74.1994Z" fill="white"/>
<path d="M10 59.0272L35.3061 12L59.3777 55.7155L51.3538 58.6298L50.2737 59.0272L49.2108 56.6428H16.4808V57.835L16.1722 58.3649L16.0179 58.7623L10 59.0272Z" fill="#262D46"/>
<path d="M47.9991 51.5825L34.7288 21.909L20.2241 51.5825H47.9991Z" fill="#B3C394"/>
<path d="M15.7488 58.6035H10.811L14.6687 51.5826H20.2237L15.9031 58.6035H15.7488Z" fill="#262D46"/>
<path d="M16.8287 58.6035L34.7281 21.909H33.8022L17.9088 55.1592L15.9028 58.6035H16.8287Z" fill="#262D46"/>
<path d="M65 66V64L476.402 64.2726V66H65Z" fill="#B3C394"/>
<rect x="6" y="4" width="59" height="60" fill="#B3C394"/>
<path d="M10.811 58.2201L36.1171 11.1146L60.1887 54.9028L52.1648 57.822L51.0847 58.2201L50.0218 55.8316H17.2919V57.0258L16.9832 57.5566L16.8289 57.9547L10.811 58.2201Z" fill="#262D46"/>
<path d="M47.9986 51.1874L34.7283 21.4645L20.2236 51.1874H47.9986Z" fill="#B3C394"/>
<path d="M15.7488 58.2201H10.811L14.6687 51.1874H20.2237L15.9031 58.2201H15.7488Z" fill="#262D46"/>
<path d="M16.8287 58.2201L34.7281 21.4645H33.8022L17.9088 54.7701L15.9028 58.2201H16.8287Z" fill="#262D46"/>
</svg>